<?xml version="1.0" encoding="utf-8"?>
<!-- Generator: Adobe Illustrator 23.0.1, SVG Export Plug-In . SVG Version: 6.00 Build 0)  -->
<svg version="1.1" id="Layer_1" xmlns="http://www.w3.org/2000/svg" xmlns:xlink="http://www.w3.org/1999/xlink" x="0px" y="0px"
	 viewBox="0 0 432.2 100" style="enable-background:new 0 0 432.2 100;" xml:space="preserve">
<style type="text/css">
	.st0{fill:#1F2326;}
	.st1{fill:#27A0FC;}
	.st2{fill:#FFFFFF;}
	.st3{fill:#ff0000;}
</style>
<title>logo</title>
<g>
	<g>
		<rect class="st0" width="11.1" height="11.1"/>
		<rect x="11.1" class="st0" width="11.1" height="11.1"/>
		<rect x="11.1" y="11.1" class="st0" width="11.1" height="11.1"/>
		<rect x="11.1" y="22.2" class="st0" width="11.1" height="11.1"/>
		<rect x="11.1" y="33.3" class="st0" width="11.1" height="11.1"/>
		<rect x="11.1" y="44.4" class="st0" width="11.1" height="11.1"/>
		<rect x="11.1" y="55.6" class="st0" width="11.1" height="11.1"/>
		<rect x="11.1" y="66.7" class="st0" width="11.1" height="11.1"/>
		<rect x="11.1" y="77.8" class="st0" width="11.1" height="11.1"/>
		<rect x="11.1" y="88.9" class="st0" width="11.1" height="11.1"/>
		<rect x="22.2" class="st0" width="11.1" height="11.1"/>
		<rect x="22.2" y="11.1" class="st0" width="11.1" height="11.1"/>
		<rect x="22.2" y="22.2" class="st2" width="11.1" height="11.1"/>
		<rect x="22.2" y="33.3" class="st2" width="11.1" height="11.1"/>
		<rect x="22.2" y="44.4" class="st2" width="11.1" height="11.1"/>
		<rect x="22.2" y="55.6" class="st2" width="11.1" height="11.1"/>
		<rect x="22.2" y="66.7" class="st2" width="11.1" height="11.1"/>
		<rect x="22.2" y="77.8" class="st0" width="11.1" height="11.1"/>
		<rect x="22.2" y="88.9" class="st0" width="11.1" height="11.1"/>
		<rect x="33.3" class="st0" width="11.1" height="11.1"/>
		<rect x="33.3" y="11.1" class="st0" width="11.1" height="11.1"/>
		<rect x="33.3" y="22.2" class="st0" width="11.1" height="11.1"/>
		<rect x="33.3" y="33.3" class="st0" width="11.1" height="11.1"/>
		<rect x="33.3" y="44.4" class="st0" width="11.1" height="11.1"/>
		<rect x="33.3" y="55.6" class="st0" width="11.1" height="11.1"/>
		<rect x="33.3" y="66.7" class="st0" width="11.1" height="11.1"/>
		<rect x="33.3" y="77.8" class="st0" width="11.1" height="11.1"/>
		<rect x="33.3" y="88.9" class="st0" width="11.1" height="11.1"/>
		<rect x="44.4" class="st0" width="11.1" height="11.1"/>
		<rect x="44.4" y="11.1" class="st0" width="11.1" height="11.1"/>
		<rect x="44.4" y="22.2" class="st0" width="11.1" height="11.1"/>
		<rect x="44.4" y="33.3" class="st0" width="11.1" height="11.1"/>
		<rect x="44.4" y="44.4" class="st1" width="11.1" height="11.1"/>
		<rect x="44.4" y="55.6" class="st0" width="11.1" height="11.1"/>
		<rect x="44.4" y="66.7" class="st0" width="11.1" height="11.1"/>
		<rect x="44.4" y="77.8" class="st0" width="11.1" height="11.1"/>
		<rect x="44.4" y="88.9" class="st0" width="11.1" height="11.1"/>
		<rect x="55.6" class="st0" width="11.1" height="11.1"/>
		<rect x="55.6" y="11.1" class="st0" width="11.1" height="11.1"/>
		<rect x="55.6" y="22.2" class="st0" width="11.1" height="11.1"/>
		<rect x="55.6" y="33.3" class="st2" width="11.1" height="11.1"/>
		<rect x="55.6" y="44.4" class="st0" width="11.1" height="11.1"/>
		<rect x="55.6" y="55.6" class="st2" width="11.1" height="11.1"/>
		<rect x="55.6" y="66.7" class="st0" width="11.1" height="11.1"/>
		<rect x="55.6" y="77.8" class="st0" width="11.1" height="11.1"/>
		<rect x="55.6" y="88.9" class="st0" width="11.1" height="11.1"/>
		<rect x="66.7" class="st0" width="11.1" height="11.1"/>
		<rect x="66.7" y="11.1" class="st0" width="11.1" height="11.1"/>
		<rect x="66.7" y="22.2" class="st1" width="11.1" height="11.1"/>
		<rect x="66.7" y="33.3" class="st0" width="11.1" height="11.1"/>
		<rect x="66.7" y="44.4" class="st0" width="11.1" height="11.1"/>
		<rect x="66.7" y="55.6" class="st0" width="11.1" height="11.1"/>
		<rect x="66.7" y="66.7" class="st1" width="11.1" height="11.1"/>
		<rect x="66.7" y="77.8" class="st0" width="11.1" height="11.1"/>
		<rect x="66.7" y="88.9" class="st0" width="11.1" height="11.1"/>
		<rect x="77.8" class="st0" width="11.1" height="11.1"/>
		<rect x="77.8" y="11.1" class="st0" width="11.1" height="11.1"/>
		<rect x="77.8" y="22.2" class="st0" width="11.1" height="11.1"/>
		<rect x="77.8" y="33.3" class="st0" width="11.1" height="11.1"/>
		<rect x="77.8" y="44.4" class="st0" width="11.1" height="11.1"/>
		<rect x="77.8" y="55.6" class="st0" width="11.1" height="11.1"/>
		<rect x="77.8" y="66.7" class="st0" width="11.1" height="11.1"/>
		<rect x="77.8" y="77.8" class="st0" width="11.1" height="11.1"/>
		<rect x="77.8" y="88.9" class="st0" width="11.1" height="11.1"/>
		<rect x="88.9" class="st0" width="11.1" height="11.1"/>
		<rect x="88.9" y="11.1" class="st0" width="11.1" height="11.1"/>
		<rect x="88.9" y="22.2" class="st0" width="11.1" height="11.1"/>
		<rect x="88.9" y="33.3" class="st0" width="11.1" height="11.1"/>
		<rect x="88.9" y="44.4" class="st0" width="11.1" height="11.1"/>
		<rect x="88.9" y="55.6" class="st0" width="11.1" height="11.1"/>
		<rect x="88.9" y="66.7" class="st0" width="11.1" height="11.1"/>
		<rect x="88.9" y="77.8" class="st0" width="11.1" height="11.1"/>
		<rect x="88.9" y="88.9" class="st0" width="11.1" height="11.1"/>
		<rect y="11.1" class="st0" width="11.1" height="11.1"/>
		<rect y="22.2" class="st0" width="11.1" height="11.1"/>
		<rect y="33.3" class="st0" width="11.1" height="11.1"/>
		<rect y="44.4" class="st0" width="11.1" height="11.1"/>
		<rect y="55.6" class="st0" width="11.1" height="11.1"/>
		<rect y="66.7" class="st0" width="11.1" height="11.1"/>
		<rect y="77.8" class="st0" width="11.1" height="11.1"/>
		<rect y="88.9" class="st0" width="11.1" height="11.1"/>
	</g>
	<g>
		<rect x="111.1" class="st0" width="11.1" height="11.1"/>
		<rect x="111.1" y="11.1" class="st0" width="11.1" height="11.1"/>
		<rect x="111.1" y="22.2" class="st0" width="11.1" height="11.1"/>
		<rect x="111.1" y="33.3" class="st0" width="11.1" height="11.1"/>
		<rect x="111.1" y="44.4" class="st0" width="11.1" height="11.1"/>
		<rect x="111.1" y="55.6" class="st0" width="11.1" height="11.1"/>
		<rect x="111.1" y="66.7" class="st0" width="11.1" height="11.1"/>
		<rect x="111.1" y="77.8" class="st0" width="11.1" height="11.1"/>
		<rect x="111.1" y="88.9" class="st0" width="11.1" height="11.1"/>
		<rect x="122.2" class="st0" width="11.1" height="11.1"/>
		<rect x="122.2" y="11.1" class="st0" width="11.1" height="11.1"/>
		<rect x="122.2" y="22.2" class="st0" width="11.1" height="11.1"/>
		<rect x="122.2" y="33.3" class="st0" width="11.1" height="11.1"/>
		<rect x="122.2" y="44.4" class="st0" width="11.1" height="11.1"/>
		<rect x="122.2" y="55.6" class="st0" width="11.1" height="11.1"/>
		<rect x="122.2" y="66.7" class="st0" width="11.1" height="11.1"/>
		<rect x="122.2" y="77.8" class="st0" width="11.1" height="11.1"/>
		<rect x="122.2" y="88.9" class="st0" width="11.1" height="11.1"/>
		<rect x="133.3" class="st0" width="11.1" height="11.1"/>
		<rect x="133.3" y="11.1" class="st0" width="11.1" height="11.1"/>
		<rect x="133.3" y="22.2" class="st0" width="11.1" height="11.1"/>
		<rect x="133.3" y="33.3" class="st1" width="11.1" height="11.1"/>
		<rect x="133.3" y="44.4" class="st0" width="11.1" height="11.1"/>
		<rect x="133.3" y="55.6" class="st1" width="11.1" height="11.1"/>
		<rect x="133.3" y="66.7" class="st0" width="11.1" height="11.1"/>
		<rect x="133.3" y="77.8" class="st0" width="11.1" height="11.1"/>
		<rect x="133.3" y="88.9" class="st0" width="11.1" height="11.1"/>
		<rect x="144.4" class="st0" width="11.1" height="11.1"/>
		<rect x="144.4" y="11.1" class="st0" width="11.1" height="11.1"/>
		<rect x="144.4" y="22.2" class="st1" width="11.1" height="11.1"/>
		<rect x="144.4" y="33.3" class="st0" width="11.1" height="11.1"/>
		<rect x="144.4" y="44.4" class="st0" width="11.1" height="11.1"/>
		<rect x="144.4" y="55.6" class="st0" width="11.1" height="11.1"/>
		<rect x="144.4" y="66.7" class="st1" width="11.1" height="11.1"/>
		<rect x="144.4" y="77.8" class="st0" width="11.1" height="11.1"/>
		<rect x="144.4" y="88.9" class="st0" width="11.1" height="11.1"/>
		<rect x="155.6" class="st0" width="11.1" height="11.1"/>
		<rect x="155.6" y="11.1" class="st0" width="11.1" height="11.1"/>
		<rect x="155.6" y="22.2" class="st1" width="11.1" height="11.1"/>
		<rect x="155.6" y="33.3" class="st0" width="11.1" height="11.1"/>
		<rect x="155.6" y="44.4" class="st1" width="11.1" height="11.1"/>
		<rect x="155.6" y="55.6" class="st0" width="11.1" height="11.1"/>
		<rect x="155.6" y="66.7" class="st1" width="11.1" height="11.1"/>
		<rect x="155.6" y="77.8" class="st0" width="11.1" height="11.1"/>
		<rect x="155.6" y="88.9" class="st0" width="11.1" height="11.1"/>
		<rect x="166.7" class="st0" width="11.1" height="11.1"/>
		<rect x="166.7" y="11.1" class="st0" width="11.1" height="11.1"/>
		<rect x="166.7" y="22.2" class="st1" width="11.1" height="11.1"/>
		<rect x="166.7" y="33.3" class="st0" width="11.1" height="11.1"/>
		<rect x="166.7" y="44.4" class="st1" width="11.1" height="11.1"/>
		<rect x="166.7" y="55.6" class="st0" width="11.1" height="11.1"/>
		<rect x="166.7" y="66.7" class="st1" width="11.1" height="11.1"/>
		<rect x="166.7" y="77.8" class="st0" width="11.1" height="11.1"/>
		<rect x="166.7" y="88.9" class="st0" width="11.1" height="11.1"/>
		<rect x="177.8" class="st0" width="11.1" height="11.1"/>
		<rect x="177.8" y="11.1" class="st0" width="11.1" height="11.1"/>
		<rect x="177.8" y="22.2" class="st0" width="11.1" height="11.1"/>
		<rect x="177.8" y="33.3" class="st1" width="11.1" height="11.1"/>
		<rect x="177.8" y="44.4" class="st0" width="11.1" height="11.1"/>
		<rect x="177.8" y="55.6" class="st1" width="11.1" height="11.1"/>
		<rect x="177.8" y="66.7" class="st0" width="11.1" height="11.1"/>
		<rect x="177.8" y="77.8" class="st0" width="11.1" height="11.1"/>
		<rect x="177.8" y="88.9" class="st0" width="11.1" height="11.1"/>
		<rect x="188.9" class="st0" width="11.1" height="11.1"/>
		<rect x="188.9" y="11.1" class="st0" width="11.1" height="11.1"/>
		<rect x="188.9" y="22.2" class="st0" width="11.1" height="11.1"/>
		<rect x="188.9" y="33.3" class="st0" width="11.1" height="11.1"/>
		<rect x="188.9" y="44.4" class="st0" width="11.1" height="11.1"/>
		<rect x="188.9" y="55.6" class="st0" width="11.1" height="11.1"/>
		<rect x="188.9" y="66.7" class="st0" width="11.1" height="11.1"/>
		<rect x="188.9" y="77.8" class="st0" width="11.1" height="11.1"/>
		<rect x="188.9" y="88.9" class="st0" width="11.1" height="11.1"/>
		<rect x="200" class="st0" width="11.1" height="11.1"/>
		<rect x="200" y="11.1" class="st0" width="11.1" height="11.1"/>
		<rect x="200" y="22.2" class="st0" width="11.1" height="11.1"/>
		<rect x="200" y="33.3" class="st0" width="11.1" height="11.1"/>
		<rect x="200" y="44.4" class="st0" width="11.1" height="11.1"/>
		<rect x="200" y="55.6" class="st0" width="11.1" height="11.1"/>
		<rect x="200" y="66.7" class="st0" width="11.1" height="11.1"/>
		<rect x="200" y="77.8" class="st0" width="11.1" height="11.1"/>
		<rect x="200" y="88.9" class="st0" width="11.1" height="11.1"/>
	</g>
	<g>
		<rect y="0" x="222.2"    class="st0" width="11.1" height="11.1"/>
		<rect y="0" x="233.3"    class="st0" width="11.1" height="11.1"/>
		<rect y="0" x="244.4"    class="st0" width="11.1" height="11.1"/>
		<rect y="0" x="255.6"    class="st0" width="11.1" height="11.1"/>
		<rect y="0" x="266.7"    class="st0" width="11.1" height="11.1"/>
		<rect y="0" x="277.8"    class="st0" width="11.1" height="11.1"/>
		<rect y="0" x="288.9"    class="st0" width="11.1" height="11.1"/>
		<rect y="0" x="300"      class="st0" width="11.1" height="11.1"/>

		<rect y="0" x="311.1"    class="st0" width="11.1" height="11.1"/>
		<rect y="11.1" x="222.2" class="st0" width="11.1" height="11.1"/>
		<rect y="11.1" x="233.3" class="st0" width="11.1" height="11.1"/>
		<rect y="11.1" x="244.4" class="st0" width="11.1" height="11.1"/>
		<rect y="11.1" x="255.6" class="st0" width="11.1" height="11.1"/>
		<rect y="11.1" x="266.7" class="st0" width="11.1" height="11.1"/>
		<rect y="11.1" x="277.8" class="st0" width="11.1" height="11.1"/>
		<rect y="11.1" x="288.9" class="st0" width="11.1" height="11.1"/>
		<rect y="11.1" x="300"   class="st0" width="11.1" height="11.1"/>
		<rect y="11.1" x="311.1" class="st0" width="11.1" height="11.1"/>

		<rect y="22.2" x="222.2" class="st0" width="11.1" height="11.1"/>
		<rect y="22.2" x="233.3" class="st0" width="11.1" height="11.1"/>
		<rect y="22.2" x="244.4" class="st0" width="11.1" height="11.1"/>
		<rect y="22.2" x="255.6" class="st1" width="11.1" height="11.1"/>
		<rect y="22.2" x="266.7" class="st1" width="11.1" height="11.1"/>
		<rect y="22.2" x="277.8" class="st1" width="11.1" height="11.1"/>
		<rect y="22.2" x="288.9" class="st0" width="11.1" height="11.1"/>
		<rect y="22.2" x="300"   class="st0" width="11.1" height="11.1"/>
		<rect y="22.2" x="311.1" class="st0" width="11.1" height="11.1"/>

		<rect y="33.3" x="222.2" class="st0" width="11.1" height="11.1"/>
		<rect y="33.3" x="233.3" class="st0" width="11.1" height="11.1"/>
		<rect y="33.3" x="244.4" class="st1" width="11.1" height="11.1"/>
		<rect y="33.3" x="255.6" class="st0" width="11.1" height="11.1"/>
		<rect y="33.3" x="266.7" class="st0" width="11.1" height="11.1"/>
		<rect y="33.3" x="277.8" class="st0" width="11.1" height="11.1"/>
		<rect y="33.3" x="288.9" class="st1" width="11.1" height="11.1"/>
		<rect y="33.3" x="300"   class="st0" width="11.1" height="11.1"/>
		<rect y="33.3" x="311.1" class="st0" width="11.1" height="11.1"/>

		<rect y="44.4" x="222.2" class="st0" width="11.1" height="11.1"/>
		<rect y="44.4" x="233.3" class="st0" width="11.1" height="11.1"/>
		<rect y="44.4" x="244.4" class="st2" width="11.1" height="11.1"/>
		<rect y="44.4" x="255.6" class="st0" width="11.1" height="11.1"/>
		<rect y="44.4" x="266.7" class="st0" width="11.1" height="11.1"/>
		<rect y="44.4" x="277.8" class="st0" width="11.1" height="11.1"/>
		<rect y="44.4" x="288.9" class="st2" width="11.1" height="11.1"/>
		<rect y="44.4" x="300"   class="st0" width="11.1" height="11.1"/>
		<rect y="44.4" x="311.1" class="st0" width="11.1" height="11.1"/>

		<rect y="55.6" x="222.2" class="st0" width="11.1" height="11.1"/>
		<rect y="55.6" x="233.3" class="st0" width="11.1" height="11.1"/>
		<rect y="55.6" x="244.4" class="st1" width="11.1" height="11.1"/>
		<rect y="55.6" x="255.6" class="st0" width="11.1" height="11.1"/>
		<rect y="55.6" x="266.7" class="st0" width="11.1" height="11.1"/>
		<rect y="55.6" x="277.8" class="st0" width="11.1" height="11.1"/>
		<rect y="55.6" x="288.9" class="st1" width="11.1" height="11.1"/>
		<rect y="55.6" x="300"   class="st0" width="11.1" height="11.1"/>
		<rect y="55.6" x="311.1" class="st0" width="11.1" height="11.1"/>

		<rect y="66.7" x="222.2" class="st0" width="11.1" height="11.1"/>
		<rect y="66.7" x="233.3" class="st0" width="11.1" height="11.1"/>
		<rect y="66.7" x="244.4" class="st0" width="11.1" height="11.1"/>
		<rect y="66.7" x="255.6" class="st1" width="11.1" height="11.1"/>
		<rect y="66.7" x="266.7" class="st1" width="11.1" height="11.1"/>
		<rect y="66.7" x="277.8" class="st1" width="11.1" height="11.1"/>
		<rect y="66.7" x="288.9" class="st0" width="11.1" height="11.1"/>
		<rect y="66.7" x="300"   class="st0" width="11.1" height="11.1"/>
		<rect y="66.7" x="311.1" class="st0" width="11.1" height="11.1"/>

		<rect y="77.8" x="222.2" class="st0" width="11.1" height="11.1"/>
		<rect y="77.8" x="233.3" class="st0" width="11.1" height="11.1"/>
		<rect y="77.8" x="244.4" class="st0" width="11.1" height="11.1"/>
		<rect y="77.8" x="255.6" class="st0" width="11.1" height="11.1"/>
		<rect y="77.8" x="266.7" class="st0" width="11.1" height="11.1"/>
		<rect y="77.8" x="277.8" class="st0" width="11.1" height="11.1"/>
		<rect y="77.8" x="288.9" class="st0" width="11.1" height="11.1"/>
		<rect y="77.8" x="300"   class="st0" width="11.1" height="11.1"/>
		<rect y="77.8" x="311.1" class="st0" width="11.1" height="11.1"/>

		<rect y="88.9" x="222.2" class="st0" width="11.1" height="11.1"/>
		<rect y="88.9" x="233.3" class="st0" width="11.1" height="11.1"/>
		<rect y="88.9" x="244.4" class="st0" width="11.1" height="11.1"/>
		<rect y="88.9" x="255.6" class="st0" width="11.1" height="11.1"/>
		<rect y="88.9" x="266.7" class="st0" width="11.1" height="11.1"/>
		<rect y="88.9" x="277.8" class="st0" width="11.1" height="11.1"/>
		<rect y="88.9" x="288.9" class="st0" width="11.1" height="11.1"/>
		<rect y="88.9" x="300"   class="st0" width="11.1" height="11.1"/>
		<rect y="88.9" x="311.1" class="st0" width="11.1" height="11.1"/>
	</g>
</g>
<g>
	<g>
		<rect x="332.2" class="st0" width="11.1" height="11.1"/>
		<rect x="332.2" y="11.1" class="st0" width="11.1" height="11.1"/>
		<rect x="332.2" y="22.2" class="st0" width="11.1" height="11.1"/>
		<rect x="332.2" y="33.3" class="st0" width="11.1" height="11.1"/>
		<rect x="332.2" y="44.4" class="st0" width="11.1" height="11.1"/>
		<rect x="332.2" y="55.6" class="st0" width="11.1" height="11.1"/>
		<rect x="332.2" y="66.7" class="st0" width="11.1" height="11.1"/>
		<rect x="332.2" y="77.8" class="st0" width="11.1" height="11.1"/>
		<rect x="332.2" y="88.9" class="st0" width="11.1" height="11.1"/>
		<rect x="343.3" class="st0" width="11.1" height="11.1"/>
		<rect x="343.3" y="11.1" class="st0" width="11.1" height="11.1"/>
		<rect x="343.3" y="22.2" class="st0" width="11.1" height="11.1"/>
		<rect x="343.3" y="33.3" class="st0" width="11.1" height="11.1"/>
		<rect x="343.3" y="44.4" class="st0" width="11.1" height="11.1"/>
		<rect x="343.3" y="55.6" class="st0" width="11.1" height="11.1"/>
		<rect x="343.3" y="66.7" class="st0" width="11.1" height="11.1"/>
		<rect x="343.3" y="77.8" class="st0" width="11.1" height="11.1"/>
		<rect x="343.3" y="88.9" class="st0" width="11.1" height="11.1"/>
		<rect x="354.4" class="st0" width="11.1" height="11.1"/>
		<rect x="354.4" y="11.1" class="st0" width="11.1" height="11.1"/>
		<rect x="354.4" y="22.2" class="st0" width="11.1" height="11.1"/>
		<rect x="354.4" y="33.3" class="st2" width="11.1" height="11.1"/>
		<rect x="354.4" y="44.4" class="st0" width="11.1" height="11.1"/>
		<rect x="354.4" y="55.6" class="st0" width="11.1" height="11.1"/>
		<rect x="354.4" y="66.7" class="st2" width="11.1" height="11.1"/>
		<rect x="354.4" y="77.8" class="st0" width="11.1" height="11.1"/>
		<rect x="354.4" y="88.9" class="st0" width="11.1" height="11.1"/>
		<rect x="365.6" class="st0" width="11.1" height="11.1"/>
		<rect x="365.6" y="11.1" class="st0" width="11.1" height="11.1"/>
		<rect x="365.6" y="22.2" class="st2" width="11.1" height="11.1"/>
		<rect x="365.6" y="33.3" class="st0" width="11.1" height="11.1"/>
		<rect x="365.6" y="44.4" class="st2" width="11.1" height="11.1"/>
		<rect x="365.6" y="55.6" class="st0" width="11.1" height="11.1"/>
		<rect x="365.6" y="66.7" class="st2" width="11.1" height="11.1"/>
		<rect x="365.6" y="77.8" class="st0" width="11.1" height="11.1"/>
		<rect x="365.6" y="88.9" class="st0" width="11.1" height="11.1"/>
		<rect x="376.7" class="st0" width="11.1" height="11.1"/>
		<rect x="376.7" y="11.1" class="st0" width="11.1" height="11.1"/>
		<rect x="376.7" y="22.2" class="st2" width="11.1" height="11.1"/>
		<rect x="376.7" y="33.3" class="st0" width="11.1" height="11.1"/>
		<rect x="376.7" y="44.4" class="st2" width="11.1" height="11.1"/>
		<rect x="376.7" y="55.6" class="st0" width="11.1" height="11.1"/>
		<rect x="376.7" y="66.7" class="st2" width="11.1" height="11.1"/>
		<rect x="376.7" y="77.8" class="st0" width="11.1" height="11.1"/>
		<rect x="376.7" y="88.9" class="st0" width="11.1" height="11.1"/>
		<rect x="387.8" class="st0" width="11.1" height="11.1"/>
		<rect x="387.8" y="11.1" class="st0" width="11.1" height="11.1"/>
		<rect x="387.8" y="22.2" class="st2" width="11.1" height="11.1"/>
		<rect x="387.8" y="33.3" class="st0" width="11.1" height="11.1"/>
		<rect x="387.8" y="44.4" class="st2" width="11.1" height="11.1"/>
		<rect x="387.8" y="55.6" class="st0" width="11.1" height="11.1"/>
		<rect x="387.8" y="66.7" class="st2" width="11.1" height="11.1"/>
		<rect x="387.8" y="77.8" class="st0" width="11.1" height="11.1"/>
		<rect x="387.8" y="88.9" class="st0" width="11.1" height="11.1"/>
		<rect x="398.9" class="st0" width="11.1" height="11.1"/>
		<rect x="398.9" y="11.1" class="st0" width="11.1" height="11.1"/>
		<rect x="398.9" y="22.2" class="st2" width="11.1" height="11.1"/>
		<rect x="398.9" y="33.3" class="st0" width="11.1" height="11.1"/>
		<rect x="398.9" y="44.4" class="st0" width="11.1" height="11.1"/>
		<rect x="398.9" y="55.6" class="st2" width="11.1" height="11.1"/>
		<rect x="398.9" y="66.7" class="st0" width="11.1" height="11.1"/>
		<rect x="398.9" y="77.8" class="st0" width="11.1" height="11.1"/>
		<rect x="398.9" y="88.9" class="st0" width="11.1" height="11.1"/>
		<rect x="410" class="st0" width="11.1" height="11.1"/>
		<rect x="410" y="11.1" class="st0" width="11.1" height="11.1"/>
		<rect x="410" y="22.2" class="st0" width="11.1" height="11.1"/>
		<rect x="410" y="33.3" class="st0" width="11.1" height="11.1"/>
		<rect x="410" y="44.4" class="st0" width="11.1" height="11.1"/>
		<rect x="410" y="55.6" class="st0" width="11.1" height="11.1"/>
		<rect x="410" y="66.7" class="st0" width="11.1" height="11.1"/>
		<rect x="410" y="77.8" class="st0" width="11.1" height="11.1"/>
		<rect x="410" y="88.9" class="st0" width="11.1" height="11.1"/>
		<rect x="421.1" class="st0" width="11.1" height="11.1"/>
		<rect x="421.1" y="11.1" class="st0" width="11.1" height="11.1"/>
		<rect x="421.1" y="22.2" class="st0" width="11.1" height="11.1"/>
		<rect x="421.1" y="33.3" class="st0" width="11.1" height="11.1"/>
		<rect x="421.1" y="44.4" class="st0" width="11.1" height="11.1"/>
		<rect x="421.1" y="55.6" class="st0" width="11.1" height="11.1"/>
		<rect x="421.1" y="66.7" class="st0" width="11.1" height="11.1"/>
		<rect x="421.1" y="77.8" class="st0" width="11.1" height="11.1"/>
		<rect x="421.1" y="88.9" class="st0" width="11.1" height="11.1"/>
	</g>
</g>
</svg>
