<svg xmlns="http://www.w3.org/2000/svg" viewBox="0 0 425.1 540.94"><defs><style>.cls-1,.cls-6{fill:#199eff;}.cls-1{opacity:0.36;}.cls-2{fill:#3d3e3e;}.cls-3{fill:#2e3132;}.cls-4{fill:#1f2326;}.cls-5{fill:#e3e4e5;}</style></defs><title>k3OS-logo</title><g id="Layer_2" data-name="Layer 2"><g id="Layer_1-2" data-name="Layer 1"><path class="cls-1" d="M212.63,425.92c2.19.1,3.62-1.49,5.29-2.46q52.92-30.66,105.79-61.4c.85-.5,1.77-.91,2.65-1.36,7.35,6.41,16.33,10.18,24.6,15.06,20.34,12,40.86,23.7,61.31,35.51,3,1.75,6.05,3.49,9.15,5.1s2.8,3-.07,4.66c-10.5,6.09-20.9,12.35-31.41,18.44q-57.63,33.39-115.29,66.73-28.71,16.63-57.27,33.51c-2.36,1.38-4.54,1.75-7,.31q-32.56-18.93-65.18-37.79Q107.6,480.51,70,458.86,37.13,439.92,4.25,421c-4.07-2.33-1.33-3.5.64-4.66q16.75-9.89,33.6-19.63Q66.75,380.32,95,364c1.58-.91,2.72-1.9,2.59-3.85l64,36.62Z"/><path class="cls-2" d="M.85,122.21c8.23-6.19,17.46-10.74,26.31-15.9Q116.86,54,206.62,1.85c4.09-2.38,6.95-2.53,11.17-.08q100.8,58.5,201.8,116.66c1.79,1,4.09,1.53,5.09,3.7l-80.19,46.61c-32.33,18.81-64.6,37.71-97,56.4-11.22,6.46-22.11,13.51-33.82,19.11a21.45,21.45,0,0,1-6.32-2.9q-30-17.41-60-34.79-37.78-21.84-75.6-43.62Q36.34,142.54.85,122.21Zm282.5.24c-7.15-4.19-14.3-8.36-21.42-12.59-1.2-.71-2.38-1.36-3.7-.53-7.27,4.57-15.17,8.11-22,13.39-5.68-3.42-11.59-6.51-17-10.34-4.86-3.47-8.88-3.62-13.8-.09-5.12,3.68-10.84,6.53-16.71,10L211.7,136.1l-22.94,13.78,23.08,13.62L189,177.24l21.49,12.43c1,.56,1.94,1.41,3.19.69l22.74-13.15-23.07-13.7,23-13.62-23.13-13.8c7.39-5,15.23-9.24,23-13.54,7.14,4.22,14.34,8.36,21.41,12.71,2,1.22,3.34.43,5-.52,6.89-4,13.83-7.93,20.75-11.89,6.91,4,13.81,7.91,20.73,11.82,1.22.69,2.29,1.94,4,.9,7.21-4.27,14.47-8.46,22.44-13.1-7.89-4.58-15-8.69-22.15-12.87-1.56-.91-2.79-.38-4.14.43C297.33,114.2,290.33,118.32,283.35,122.45ZM236.1,67.78c-7.33-4.24-14-7.92-20.52-12-2.61-1.62-4.52-1.54-7.17,0Q153.09,88.17,97.64,120.3c-1.07.62-2.54.89-2.89,2.62,6.59,3.81,13.29,7.49,19.77,11.53,2.65,1.65,4.53,1.47,7.15-.08,23.51-13.81,47.1-27.47,70.68-41.17Z"/><path class="cls-3" d="M.85,122.21q35.47,20.37,70.94,40.73,37.81,21.78,75.6,43.62,30,17.35,60,34.79a21.45,21.45,0,0,0,6.32,2.9c.21,81.56-1.78,163.11-1,244.67l-51-29.18-64-36.62q-32.75-19-65.48-38.08C23,379.69,13.83,374.22,4.48,369.15c-3.41-1.84-4.5-4-4.48-7.81q.45-98.1.61-196.21C.65,150.82.77,136.52.85,122.21ZM164.6,327.7c0-9.09-.06-17.22,0-25.35,0-2.09-1.21-2.89-2.69-3.73-5.49-3.14-10.83-6.57-16.48-9.38-3.55-1.76-4.6-4.05-4.41-7.83.31-6-.05-12,.14-18a5.84,5.84,0,0,0-3.33-6c-21.23-12.13-42.38-24.39-63.58-36.58-4.47-2.57-4.58-2.52-4.65,2.89-.09,6.91,0,13.82,0,21.46L45.78,231.7c0,9.2,0,17.17,0,25.13,0,2,1.06,2.93,2.6,3.8C54.27,264,60.21,267.36,66,270.9c3.08,1.89,3.86,1.16,3.78-2.28-.17-7.26,0-14.53,0-22.33a19.06,19.06,0,0,1,2.31.89q33.3,19.2,66.56,38.42c1,.56,2.11.94,2.11,2.46,0,8.22,0,16.43,0,25.28-1.61-.8-2.35-1.11-3-1.51-13.4-7.74-26.82-15.44-40.16-23.27-3-1.77-4.3-1.89-4.15,2.24.23,6.49.21,13,0,19.49-.09,2.75,1,4.17,3.25,5.47,13.3,7.56,26.6,15.13,39.75,23,4,2.41,4.58,1.22,4.46-2.76-.21-7-.06-14.06-.06-21.91Zm-24,13.27c0,8.36-.09,15.85,0,23.33,0,3-.85,3.6-3.35,1.94-1.1-.74-2.3-1.34-3.45-2-20-11.58-40.08-23.11-60.07-34.76-3.17-1.84-4.58-2-4.4,2.39.26,6.32.22,12.67,0,19-.1,2.93,1,4.43,3.47,5.82,21.38,12.22,42.7,24.56,64.06,36.84,1,.6,2,1.92,4.07.87v-25.6c7.06,4.07,13.39,7.68,19.69,11.35,2.31,1.36,3.9,2,3.82-1.85-.15-7-.1-14,0-21a4.08,4.08,0,0,0-2.34-4C155.22,349.39,148.33,345.41,140.61,341ZM69.77,327.61c0-9-.06-17.08,0-25.17,0-2-.94-3-2.49-3.88-6.07-3.45-12.15-6.89-18.15-10.45-2.56-1.52-3.47-1.08-3.42,2,.11,7,.06,14,0,21,0,1.57.13,2.86,1.73,3.76C54.67,318.86,61.8,323,69.77,327.61Z"/><path class="cls-4" d="M212.63,488.92c-.74-81.56,1.25-163.11,1-244.67,11.71-5.6,22.6-12.65,33.82-19.11,32.4-18.69,64.67-37.59,97-56.4l80.19-46.61c.15,1.64.42,3.28.42,4.92q-.23,117.6-.4,235.19c0,3.39-1.31,4.92-4,6.49Q375.77,394.67,331,420.82c-1.57.92-3.09,1.92-4.64,2.88-.88.45-1.8.86-2.65,1.36q-52.89,30.7-105.79,61.4C216.25,487.43,214.82,489,212.63,488.92Zm72.1-177.45v27.09l71.08-41V325c7.78-4.5,14.8-8.59,21.85-12.63a2.93,2.93,0,0,0,1.79-2.72c0-8.37,0-16.75,0-25.82L355.35,297.6V270.25L284.3,311.19V284.06c-7.83,4.54-15,8.7-22.17,12.83-.73.42-1.48.76-1.48,1.77v26.6Zm71,13.8a7.88,7.88,0,0,0-1.77.41q-45.57,26.26-91.13,52.52a4,4,0,0,0-2.14,4c.09,7,.12,14,0,21-.05,2.85.51,3.63,3.26,2q44.64-25.87,89.35-51.62c1.33-.76,2.48-1.45,2.47-3.33C355.73,342,355.77,333.74,355.77,325.27Zm23.35-122.34c-.94.08-1.31,0-1.55.14q-45.37,26.13-90.71,52.31c-1.09.63-2.43,1.08-2.42,2.82,0,8.41,0,16.81,0,25.53a10.38,10.38,0,0,0,2-.53q45.15-26,90.3-52a4.06,4.06,0,0,0,2.44-3.91C379.07,219.26,379.12,211.27,379.12,202.93Z"/><path class="cls-5" d="M236.1,67.78,192.35,93.2c-23.58,13.7-47.17,27.36-70.68,41.17-2.62,1.55-4.5,1.73-7.15.08-6.48-4-13.18-7.72-19.77-11.53.35-1.73,1.82-2,2.89-2.62Q153,88.08,208.41,55.83c2.65-1.54,4.56-1.62,7.17,0C222.07,59.86,228.77,63.54,236.1,67.78Z"/><path class="cls-5" d="M213.21,136.09l23.13,13.8-23,13.62h-1.54l-23.08-13.62L211.7,136.1Z"/><path class="cls-5" d="M236.23,122.72c6.83-5.28,14.73-8.82,22-13.39,1.32-.83,2.5-.18,3.7.53,7.12,4.23,14.27,8.4,21.41,12.59l0,.4c-6.92,4-13.86,7.89-20.75,11.89-1.63.95-3,1.74-5,.52-7.07-4.35-14.27-8.49-21.41-12.71Z"/><path class="cls-6" d="M283.38,122.85l0-.4c7-4.13,14-8.25,21-12.42,1.35-.81,2.58-1.34,4.14-.43,7.12,4.18,14.26,8.29,22.15,12.87-8,4.64-15.23,8.83-22.44,13.1-1.75,1-2.82-.21-4-.9C297.19,130.76,290.29,126.8,283.38,122.85Z"/><path class="cls-6" d="M236.23,122.72l0-.17c-7.81,4.3-15.65,8.53-23,13.54H211.7l-22.94-13.83c5.87-3.45,11.59-6.3,16.71-10,4.92-3.53,8.94-3.38,13.8.09C224.64,116.21,230.55,119.3,236.23,122.72Z"/><path class="cls-6" d="M211.84,163.5h1.54l23.07,13.7-22.74,13.15c-1.25.72-2.2-.13-3.19-.69L189,177.24Z"/><path class="cls-6" d="M164.6,327.7l-23.83-13.65c0,7.85-.15,14.89.06,21.91.12,4-.43,5.17-4.46,2.76-13.15-7.83-26.45-15.4-39.75-23-2.28-1.3-3.34-2.72-3.25-5.47.22-6.49.24-13,0-19.49-.15-4.13,1.14-4,4.15-2.24,13.34,7.83,26.76,15.53,40.16,23.27.69.4,1.43.71,3,1.51,0-8.85,0-17.06,0-25.28,0-1.52-1.13-1.9-2.11-2.46q-33.27-19.23-66.56-38.42a19.06,19.06,0,0,0-2.31-.89c0,7.8-.12,15.07,0,22.33.08,3.44-.7,4.17-3.78,2.28-5.83-3.54-11.77-6.9-17.7-10.27-1.54-.87-2.62-1.77-2.6-3.8.09-8,0-15.93,0-25.13l23.84,13.52c0-7.64-.07-14.55,0-21.46.07-5.41.18-5.46,4.65-2.89,21.2,12.19,42.35,24.45,63.58,36.58a5.84,5.84,0,0,1,3.33,6c-.19,6,.17,12-.14,18-.19,3.78.86,6.07,4.41,7.83,5.65,2.81,11,6.24,16.48,9.38,1.48.84,2.72,1.64,2.69,3.73C164.54,310.48,164.6,318.61,164.6,327.7Z"/><path class="cls-6" d="M140.61,341c7.72,4.44,14.61,8.42,21.53,12.34a4.08,4.08,0,0,1,2.34,4c-.1,7-.15,14,0,21,.08,3.85-1.51,3.21-3.82,1.85-6.3-3.67-12.63-7.28-19.69-11.35v25.6c-2.1,1.05-3-.27-4.07-.87-21.36-12.28-42.68-24.62-64.06-36.84-2.43-1.39-3.57-2.89-3.47-5.82.23-6.32.27-12.67,0-19-.18-4.39,1.23-4.23,4.4-2.39,20,11.65,40,23.18,60.07,34.76,1.15.66,2.35,1.26,3.45,2,2.5,1.66,3.4,1.1,3.35-1.94C140.52,356.82,140.61,349.33,140.61,341Z"/><path class="cls-6" d="M69.77,327.61c-8-4.59-15.1-8.75-22.28-12.81-1.6-.9-1.74-2.19-1.73-3.76,0-7,.09-14,0-21-.05-3.05.86-3.49,3.42-2,6,3.56,12.08,7,18.15,10.45,1.55.88,2.52,1.89,2.49,3.88C69.71,310.53,69.77,318.63,69.77,327.61Z"/><path class="cls-5" d="M284.73,311.47l-24.08,13.79v-26.6c0-1,.75-1.35,1.48-1.77,7.18-4.13,14.34-8.29,22.17-12.83v27.13l71.05-40.94V297.6l24.09-13.77c0,9.07,0,17.45,0,25.82a2.93,2.93,0,0,1-1.79,2.72c-7.05,4-14.07,8.13-21.85,12.63V297.6l-71.08,41Z"/><path class="cls-5" d="M355.77,325.27c0,8.47,0,16.75,0,25,0,1.88-1.14,2.57-2.47,3.33Q308.66,379.41,264,405.24c-2.75,1.59-3.31.81-3.26-2,.12-7,.09-14,0-21a4,4,0,0,1,2.14-4Q308.46,352,354,325.68A7.88,7.88,0,0,1,355.77,325.27Z"/><path class="cls-5" d="M379.12,202.93c0,8.34-.05,16.33,0,24.32a4.06,4.06,0,0,1-2.44,3.91q-45.16,26-90.3,52a10.38,10.38,0,0,1-2,.53c0-8.72,0-17.12,0-25.53,0-1.74,1.33-2.19,2.42-2.82q45.33-26.17,90.71-52.31C377.81,202.93,378.18,203,379.12,202.93Z"/></g></g></svg>